<?xml version="1.0" standalone="no"?>
<!DOCTYPE svg PUBLIC "-//W3C//DTD SVG 20010904//EN"
 "http://www.w3.org/TR/2001/REC-SVG-20010904/DTD/svg10.dtd">
<svg version="1.0" xmlns="http://www.w3.org/2000/svg"
 width="256.000000pt" height="256.000000pt" viewBox="0 0 256.000000 256.000000"
 preserveAspectRatio="xMidYMid meet">
<metadata>
Created by potrace 1.11, written by Peter Selinger 2001-2013
</metadata>
<g transform="translate(0.000000,256.000000) scale(0.100000,-0.100000)"
fill="#000000" stroke="none">
<path d="M995 2544 c-66 -36 -86 -74 -90 -173 -4 -96 -3 -93 -13 -87 -20 12
-71 -34 -82 -73 -6 -22 -10 -43 -9 -48 4 -26 -10 -28 -203 -28 -112 1 -218 -2
-237 -6 -79 -17 -124 -80 -123 -170 0 -55 -1 -59 -23 -59 -13 0 -37 -11 -52
-24 l-28 -24 0 -520 c0 -488 1 -521 18 -540 10 -11 33 -23 51 -26 l33 -6 -1
-380 -2 -380 928 0 928 0 1 98 c0 53 0 181 0 283 l-1 187 54 6 c85 11 167 63
204 131 34 62 39 102 39 329 1 196 4 230 18 246 27 29 22 80 -9 107 -15 12
-33 23 -41 23 -33 0 -65 -25 -76 -58 -10 -30 -9 -38 10 -63 20 -27 21 -40 21
-254 0 -241 -5 -272 -53 -323 -32 -34 -91 -62 -132 -62 l-35 0 0 55 c0 54 0
54 34 61 19 3 43 15 53 26 17 19 18 52 18 540 l0 520 -28 24 c-15 13 -39 24
-53 24 -23 0 -24 3 -24 64 0 69 -20 111 -73 150 -26 19 -41 20 -257 21 -127 0
-230 2 -231 5 0 3 -2 22 -5 42 -5 50 -29 85 -68 99 l-33 12 0 72 c-1 84 -21
135 -67 168 -28 20 -44 22 -181 24 -123 3 -155 0 -180 -13z"/>
</g>
</svg>
